<svg width="24" height="24" viewBox="0 0 24 24" fill="none" xmlns="http://www.w3.org/2000/svg">
<path d="M6 3C5.5286 3 5.29289 3 5.14645 3.14645C5 3.29289 5 3.5286 5 4V20.2593C5 20.5857 5 20.749 5.10496 20.8056C5.20993 20.8623 5.34641 20.7728 5.61936 20.5938L11.4516 16.7689C11.7176 16.5944 11.8507 16.5072 12 16.5072C12.1493 16.5072 12.2824 16.5944 12.5484 16.7689L18.3806 20.5938C18.6536 20.7728 18.7901 20.8623 18.895 20.8056C19 20.749 19 20.5857 19 20.2593V4C19 3.5286 19 3.29289 18.8536 3.14645C18.7071 3 18.4714 3 18 3H6Z" stroke="#1E1E1E" stroke-width="1.25"/>
</svg>
