<svg width="144" height="32" viewBox="0 0 144 32" fill="none" xmlns="http://www.w3.org/2000/svg">
<g clip-path="url(#clip0_1_1515)">
<path d="M84.3088 25.7289C86.1621 25.7289 87.6645 24.2258 87.6645 22.3718C87.6645 20.5177 86.1621 19.0146 84.3088 19.0146C82.4555 19.0146 80.9531 20.5177 80.9531 22.3718C80.9531 24.2258 82.4555 25.7289 84.3088 25.7289Z" fill="#FF6200"/>
<path d="M8.51007 7.69446C3.48993 7.69446 0 11.2127 0 16.235C0 21.2572 3.42282 24.9634 8.51007 24.9634C13.5973 24.9634 17.047 21.5392 17.047 16.235C17.047 11.2127 13.5302 7.69446 8.51007 7.69446ZM8.51007 23.6072C6.42953 23.6072 5.36913 21.1498 5.36913 16.3021C5.36913 11.4544 6.42953 9.05073 8.51007 9.05073C10.5906 9.05073 11.6242 11.4947 11.6242 16.3021C11.6242 21.1498 10.5638 23.6072 8.51007 23.6072Z" fill="#1E1E1E"/>
<path d="M30.8188 7.69446C28.859 7.69446 27.1946 8.36588 25.8658 9.68187L25.6913 8.09731L25.1544 7.70789L18.6443 9.6013V10.5816L20.8322 10.8099C20.8859 12.1393 20.9127 13.1196 20.9127 14.9458V24.4935C20.9127 26.2929 20.8859 28.5891 20.8591 30.6437L18.8859 30.8451V32H28.2684V30.8451L26 30.5765C25.9731 28.2266 25.9463 26.1451 25.9463 24.48V23.1775C27.0872 24.3457 28.4832 24.9366 30.1208 24.9366C34.3758 24.9366 37.4497 21.2706 37.4497 16.2081C37.4497 11.1321 34.7785 7.69446 30.8188 7.69446ZM28.3087 22.5598C27.4497 22.5598 26.7248 22.4523 26.0268 21.9152V10.971C26.9127 10.1921 27.5973 10.0444 28.4832 10.0444C30.9664 10.0444 32.0671 11.9647 32.0671 16.2752C32.0671 22.5598 29.2483 22.5598 28.3087 22.5598Z" fill="#1E1E1E"/>
<path d="M55.2483 16.3424C55.4093 15.765 55.4362 15.2547 55.4362 14.5161C55.4362 10.4339 52.6308 7.69446 48.4563 7.69446C44.2818 7.69446 39.8523 10.6353 39.8523 16.2752C39.8523 21.5526 43.2348 24.9634 48.4832 24.9634C51.5167 24.9634 53.9731 23.4863 55.208 20.9215L55.2751 20.7872L54.4563 20.2769L54.3624 20.3978C53.2885 21.8883 51.9999 22.5463 50.1879 22.5463C47.208 22.5463 45.3959 20.3306 45.2214 16.4498H55.208L55.2483 16.3424ZM49.0738 15.0801L45.2348 15.0532C45.3557 11.2261 46.4161 9.05073 48.1342 9.05073C49.6912 9.05073 50.6577 10.4741 50.6577 12.7704C50.6577 14.5698 50.2952 15.0801 49.0738 15.0801Z" fill="#1E1E1E"/>
<path d="M74.859 17.3361V13.4956C74.859 9.81615 73.0738 7.70789 69.9731 7.70789C67.906 7.70789 66.3221 8.47331 64.5906 10.3533L64.4295 8.09731L63.8926 7.70789L57.4094 9.56101L57.2886 9.6013V10.5681L59.5033 10.7964C59.557 12.1661 59.5839 13.133 59.5839 14.9055V17.3361C59.5839 18.9206 59.557 21.3781 59.5302 23.0432L57.557 23.2178V24.4397H66.4161V23.2178L64.7382 23.07C64.7114 21.3915 64.6845 18.9341 64.6845 17.3361V11.7767C65.8389 10.783 67.0067 10.2056 67.8792 10.2056C69.0067 10.2056 69.7449 10.7024 69.7449 13.133V17.3361C69.7449 19.0146 69.7181 21.4318 69.6913 23.0432L67.8255 23.2178V24.4397H76.7114V23.2178L74.9396 23.07C74.8859 21.3109 74.859 18.8804 74.859 17.3361Z" fill="#1E1E1E"/>
<path d="M107.973 22.0226C107.409 22.8955 107.127 23.0566 106.778 23.0566C106.429 23.0566 106.027 22.9089 106.027 21.7272V13.8715C106.027 9.53416 104.228 7.69446 99.9865 7.69446C95.4496 7.69446 92.698 9.38644 92.4429 12.3407V12.3944C92.698 13.415 93.4899 14.0058 94.6443 14.0058C96.0537 14.0058 96.9396 12.9047 97.0201 11.0784L97.208 9.1313C97.557 9.06416 97.8926 9.0373 98.2953 9.0373C100.456 9.0373 101.074 9.8833 101.074 12.8107V14.4624C100.094 14.7041 99.1006 14.9727 98.2953 15.1875C93.5704 16.5572 91.8926 18.0209 91.8926 20.8141C91.8926 23.2849 93.6912 24.95 96.3624 24.95C98.7651 24.95 99.9597 23.9697 101.275 22.5598C101.825 24.1443 103.02 24.95 104.832 24.95C106.805 24.95 107.96 24.2383 108.725 22.5732L108.778 22.4523L108.04 21.848L107.973 22.0226ZM101.101 21.3915C100.04 22.318 99.4094 22.6403 98.6979 22.6403C97.3422 22.6403 96.6443 21.8346 96.6443 20.2366C96.6443 18.2224 97.6107 16.8929 99.7047 16.0335C100 15.9127 100.47 15.765 101.101 15.6038V21.3915Z" fill="#1E1E1E"/>
<path d="M126.577 5.11624L126.698 0.34914L126.148 0L119.383 1.26227L119.248 1.28913V2.33655L121.664 2.56483V9.41334C120.55 8.2585 119.222 7.6945 117.611 7.6945C113.141 7.6945 110.134 11.2128 110.134 16.4499C110.134 21.6869 112.98 24.9635 117.208 24.9635C118.873 24.9635 120.362 24.3592 121.664 23.1775L121.879 24.8158L128.497 24.4532V23.2446L126.577 23.1238V5.11624ZM121.503 21.8884C120.886 22.3449 120.215 22.5598 119.369 22.5598C116.873 22.5598 115.557 20.3844 115.557 16.2753C115.557 12.1662 116.886 10.0445 119.49 10.0445C120.242 10.0445 120.899 10.2728 121.503 10.7159V21.8884Z" fill="#1E1E1E"/>
<path d="M139.436 14.3281L137.691 13.8313C135.248 13.0927 134.913 12.193 134.913 11.3336C134.913 9.9773 135.987 9.1313 137.732 9.1313C138.523 9.1313 139.114 9.23873 139.718 9.52073L140.859 13.0121H142.779L143.034 9.06416L142.94 9.01045C141.302 8.20474 139.772 7.68103 137.651 7.68103C133.45 7.68103 130.725 9.81615 130.725 13.133C130.725 15.5635 132.148 17.1884 135.06 18.0881L136.765 18.5849C139.101 19.3101 139.57 20.1426 139.57 21.2572C139.57 22.7343 138.456 23.4863 136.255 23.4863C135.396 23.4863 134.685 23.3655 133.973 23.0969L133.047 19.2026H130.872L130.617 23.4326L130.711 23.4863C132.564 24.5069 134.389 24.9634 136.631 24.9634C141.235 24.9634 144 22.8955 144 19.4309C144.013 16.8929 142.51 15.2278 139.436 14.3281Z" fill="#1E1E1E"/>
</g>
<defs>
<clipPath id="clip0_1_1515">
<rect width="144" height="32" fill="white"/>
</clipPath>
</defs>
</svg>
